<svg width="150" height="48" viewBox="0 0 150 48" fill="none" xmlns="http://www.w3.org/2000/svg">
<g clip-path="url(#clip0_2078_36209)">
<path d="M79.0534 11.9026C79.0534 13.5963 77.6945 14.9606 76.0075 14.9606C74.3205 14.9606 72.9616 13.5963 72.9616 11.9026C72.9616 10.2089 74.2737 8.8445 76.0075 8.8445C77.7413 8.89155 79.0534 10.2559 79.0534 11.9026ZM66.4948 18.0657C66.4948 18.348 66.4948 18.8185 66.4948 18.8185C66.4948 18.8185 65.0422 16.9366 61.9494 16.9366C56.8416 16.9366 52.8585 20.8415 52.8585 26.2519C52.8585 31.6153 56.7947 35.5672 61.9494 35.5672C65.089 35.5672 66.4948 33.6383 66.4948 33.6383V34.4381C66.4948 34.8145 66.776 35.0968 67.1509 35.0968H70.9466V17.4071C70.9466 17.4071 67.4789 17.4071 67.1509 17.4071C66.776 17.4071 66.4948 17.7364 66.4948 18.0657ZM66.4948 29.4041C65.7919 30.4391 64.3861 31.333 62.6992 31.333C59.7001 31.333 57.4039 29.4511 57.4039 26.2519C57.4039 23.0527 59.7001 21.1708 62.6992 21.1708C64.3393 21.1708 65.8388 22.1118 66.4948 23.0998V29.4041ZM73.7582 17.4071H78.2568V35.0968H73.7582V17.4071ZM140.956 16.9366C137.863 16.9366 136.41 18.8185 136.41 18.8185V8.89155H131.912V35.0968C131.912 35.0968 135.38 35.0968 135.708 35.0968C136.082 35.0968 136.364 34.7674 136.364 34.4381V33.6383C136.364 33.6383 137.816 35.5672 140.909 35.5672C146.017 35.5672 150 31.6153 150 26.2519C150 20.8885 146.017 16.9366 140.956 16.9366ZM140.206 31.2859C138.472 31.2859 137.113 30.392 136.41 29.357V23.0527C137.113 22.1118 138.613 21.1238 140.206 21.1238C143.205 21.1238 145.501 23.0057 145.501 26.2049C145.501 29.4041 143.205 31.2859 140.206 31.2859ZM129.569 24.6053V35.1438H125.07V25.1228C125.07 22.2059 124.133 21.0297 121.603 21.0297C120.244 21.0297 118.838 21.7354 117.948 22.7704V35.0968H113.449V17.4071H117.01C117.385 17.4071 117.666 17.7364 117.666 18.0657V18.8185C118.978 17.4541 120.712 16.9366 122.446 16.9366C124.414 16.9366 126.054 17.5012 127.366 18.6303C128.96 19.9476 129.569 21.6413 129.569 24.6053ZM102.53 16.9366C99.4377 16.9366 97.985 18.8185 97.985 18.8185V8.89155H93.4864V35.0968C93.4864 35.0968 96.9541 35.0968 97.2821 35.0968C97.657 35.0968 97.9381 34.7674 97.9381 34.4381V33.6383C97.9381 33.6383 99.3908 35.5672 102.484 35.5672C107.591 35.5672 111.575 31.6153 111.575 26.2519C111.621 20.8885 107.638 16.9366 102.53 16.9366ZM101.781 31.2859C100.047 31.2859 98.6879 30.392 97.985 29.357V23.0527C98.6879 22.1118 100.187 21.1238 101.781 21.1238C104.78 21.1238 107.076 23.0057 107.076 26.2049C107.076 29.4041 104.78 31.2859 101.781 31.2859ZM89.597 16.9366C90.9559 16.9366 91.6589 17.1718 91.6589 17.1718V21.359C91.6589 21.359 87.91 20.0887 85.567 22.7704V35.1438H81.0684V17.4071C81.0684 17.4071 84.5361 17.4071 84.8641 17.4071C85.239 17.4071 85.5201 17.7364 85.5201 18.0657V18.8185C86.3636 17.8305 88.1912 16.9366 89.597 16.9366ZM42.8772 33.4972C42.6429 32.9326 42.4086 32.321 42.1743 31.8035C41.7994 30.9566 41.4245 30.1568 41.0965 29.4041L41.0497 29.357C37.8163 22.3 34.3486 15.1488 30.6935 8.09175L30.5529 7.80947C30.1781 7.10376 29.8032 6.35101 29.4283 5.59825C28.9597 4.75141 28.4911 3.85751 27.7413 3.01067C26.2418 1.12878 24.0862 0.09375 21.7901 0.09375C19.447 0.09375 17.3383 1.12879 15.7919 2.91657C15.089 3.76342 14.5736 4.65731 14.105 5.50416C13.7301 6.25691 13.3552 7.00967 12.9803 7.71537L12.8397 7.99765C9.23149 15.0547 5.71696 22.2059 2.4836 29.2629L2.43674 29.357C2.10871 30.1098 1.73383 30.9096 1.35895 31.7564C1.12465 32.2739 0.890346 32.8385 0.656044 33.4501C0.0468591 35.1908 -0.140582 36.8375 0.0937195 38.5312C0.609183 42.0597 2.9522 45.0237 6.18557 46.341C7.40393 46.8585 8.66916 47.0938 9.98125 47.0938C10.3561 47.0938 10.8247 47.0467 11.1996 46.9997C12.746 46.8115 14.3393 46.2939 15.8857 45.4001C17.8069 44.318 19.6345 42.7654 21.6963 40.5072C23.7582 42.7654 25.6326 44.318 27.507 45.4001C29.0534 46.2939 30.6467 46.8115 32.1931 46.9997C32.5679 47.0467 33.0365 47.0938 33.4114 47.0938C34.7235 47.0938 36.0356 46.8585 37.2071 46.341C40.4873 45.0237 42.7835 42.0127 43.299 38.5312C43.6739 36.8845 43.4864 35.2379 42.8772 33.4972ZM21.7432 35.9436C19.2127 32.7444 17.5726 29.7334 17.0103 27.1928C16.776 26.1108 16.7291 25.1698 16.8697 24.323C16.9634 23.5702 17.2446 22.9116 17.6195 22.347C18.5098 21.0767 20.0094 20.2769 21.7432 20.2769C23.477 20.2769 25.0234 21.0297 25.8669 22.347C26.2418 22.9116 26.523 23.5702 26.6167 24.323C26.7573 25.1698 26.7104 26.1578 26.4761 27.1928C25.9138 29.6863 24.2737 32.6973 21.7432 35.9436ZM40.4405 38.1548C40.1125 40.6013 38.4723 42.7184 36.1762 43.6593C35.0515 44.1298 33.8332 44.2709 32.6148 44.1298C31.4433 43.9886 30.2718 43.6123 29.0534 42.9066C27.3664 41.9656 25.6795 40.5072 23.7113 38.343C26.8041 34.5322 28.6785 31.0507 29.3814 27.9456C29.7095 26.4871 29.7563 25.1698 29.6157 23.9466C29.4283 22.7704 29.0066 21.6883 28.3505 20.7474C26.8978 18.6303 24.4611 17.4071 21.7432 17.4071C19.0253 17.4071 16.5886 18.6773 15.1359 20.7474C14.4798 21.6883 14.0581 22.7704 13.8707 23.9466C13.6832 25.1698 13.7301 26.5342 14.105 27.9456C14.8079 31.0507 16.7291 34.5792 19.7751 38.39C17.8538 40.5542 16.12 42.0127 14.433 42.9536C13.2146 43.6593 12.0431 44.0357 10.8716 44.1768C9.60637 44.318 8.388 44.1298 7.31021 43.7064C5.01406 42.7654 3.37394 40.6483 3.04592 38.2019C2.90534 37.0257 2.99906 35.8495 3.46766 34.5322C3.60825 34.0617 3.84255 33.5912 4.07685 33.0267C4.40487 32.2739 4.77976 31.4741 5.15464 30.6743L5.2015 30.5802C8.43486 23.5702 11.9025 16.4191 15.5108 9.45611L15.6514 9.17383C16.0262 8.46812 16.4011 7.71537 16.776 7.00967C17.1509 6.25691 17.5726 5.55121 18.0881 4.9396C19.0722 3.81047 20.3843 3.19885 21.8369 3.19885C23.2896 3.19885 24.6017 3.81047 25.5858 4.9396C26.1012 5.55121 26.523 6.25691 26.8978 7.00967C27.2727 7.71537 27.6476 8.46812 28.0225 9.17383L28.1631 9.45611C31.7245 16.4661 35.1921 23.6173 38.4255 30.6273V30.6743C38.8004 31.4271 39.1284 32.2739 39.5033 33.0267C39.7376 33.5912 39.9719 34.0617 40.1125 34.5322C40.4873 35.7554 40.6279 36.9316 40.4405 38.1548Z" fill="#FF4800"/>
</g>
<defs>
<clipPath id="clip0_2078_36209">
<rect width="150" height="47" fill="white" transform="translate(0 0.09375)"/>
</clipPath>
</defs>
</svg>
