<svg width="180" height="26" viewBox="0 0 180 26" fill="none" xmlns="http://www.w3.org/2000/svg">
<g clip-path="url(#clip0_2078_36113)">
<path d="M11.1959 12.4778C11.1959 11.0449 9.87881 8.98523 7.33432 8.98523C5.02918 8.98523 3.47262 10.9554 3.47262 12.9852C3.47262 15.4031 5.14907 17.1345 8.02284 17.1345H13.4711C12.1838 19.1344 9.93871 20.418 7.36428 20.418C3.29291 20.418 0 17.1046 0 13.0449C0 8.98523 3.29291 5.67176 7.36428 5.67176C11.4355 5.67176 14.7583 8.98523 14.7583 13.0449C14.7583 13.8508 14.6086 14.627 14.3991 15.3434H6.16677V14.5375L9.07049 14.4479C10.5373 14.3882 11.1959 13.6419 11.1959 12.4778Z" fill="#FF4800"/>
<path d="M20.8943 10.2374L23.7083 6.11798H27.5998L22.8101 12.7747L27.9888 19.9688H23.8578L20.7745 15.4911L17.6612 19.9688H13.7695L18.8586 12.9538L13.9193 6.11798H18.0503L20.8943 10.2374Z" fill="#FF4800"/>
<path d="M35.9812 17.4032C38.0767 17.4032 39.9028 15.5824 39.9028 13.045C39.9028 10.5077 38.0767 8.68679 35.9812 8.68679C33.9155 8.68679 32.0596 10.5077 32.0596 13.045C32.0596 15.5824 33.9155 17.4032 35.9812 17.4032ZM32.2691 8.83602C33.2871 6.68682 35.1131 5.73156 36.9691 5.73156C40.322 5.73156 43.3753 8.56742 43.3753 13.045C43.3753 17.5226 40.322 20.3585 36.9691 20.3585C35.1131 20.3585 33.2871 19.4033 32.2691 17.254C32.2093 17.1346 32.1194 17.1644 32.1194 17.2839V25.6719H28.5273V6.11962H32.1194V8.80625C32.1194 8.92562 32.2093 8.95539 32.2691 8.83602Z" fill="#FF4800"/>
<path d="M55.7388 12.4778C55.7388 11.0449 54.4219 8.98523 51.8772 8.98523C49.5722 8.98523 48.0157 10.9554 48.0157 12.9852C48.0157 15.4031 49.692 17.1345 52.5657 17.1345H58.0142C56.7269 19.1344 54.4817 20.418 51.9071 20.418C47.8359 20.418 44.543 17.1046 44.543 13.0449C44.543 8.98523 47.8359 5.67176 51.9071 5.67176C55.9784 5.67176 59.3012 8.98523 59.3012 13.0449C59.3012 13.8508 59.1515 14.627 58.942 15.3434H50.7098V14.5375L53.6136 14.4479C55.0804 14.3882 55.7388 13.6419 55.7388 12.4778Z" fill="#FF4800"/>
<path d="M67.8591 8.68771C65.7636 8.68771 63.9376 10.5086 63.9376 13.0459C63.9376 15.5833 65.7636 17.4041 67.8591 17.4041C69.9248 17.4041 71.7807 15.5833 71.7807 13.0459C71.7807 10.5086 69.9248 8.68771 67.8591 8.68771ZM71.571 17.2549C70.5532 19.4042 68.7272 20.3594 66.8713 20.3594C63.5184 20.3594 60.4648 17.5235 60.4648 13.0459C60.4648 8.56833 63.5184 5.73248 66.8713 5.73248C68.7272 5.73248 70.5532 6.68774 71.571 8.83693C71.631 8.95631 71.7207 8.92654 71.7207 8.80717V0.120609H75.313V19.9713H71.7207V17.2848C71.7207 17.1653 71.631 17.1355 71.571 17.2549Z" fill="#FF4800"/>
<path d="M81.4815 6.11798V19.9688H77.8895V6.11798H81.4815ZM77.5898 2.08819C77.5898 0.953846 78.5478 -0.00141335 79.6856 -0.00141335C80.8232 -0.00141335 81.7811 0.953846 81.7811 2.08819C81.7811 3.22253 80.8232 4.17768 79.6856 4.17768C78.5478 4.17768 77.5898 3.22253 77.5898 2.08819Z" fill="#FF4800"/>
<path d="M90.6714 8.68771C88.5759 8.68771 86.7498 10.5086 86.7498 13.0459C86.7498 15.5833 88.5759 17.4041 90.6714 17.4041C92.737 17.4041 94.593 15.5833 94.593 13.0459C94.593 10.5086 92.737 8.68771 90.6714 8.68771ZM94.3833 17.2549C93.3655 19.4042 91.5395 20.3594 89.6835 20.3594C86.3306 20.3594 83.2773 17.5235 83.2773 13.0459C83.2773 8.56833 86.3306 5.73248 89.6835 5.73248C91.5395 5.73248 93.3655 6.68774 94.3833 8.83693C94.4433 8.95631 94.533 8.92654 94.533 8.80717V6.12054H98.1252V19.9713H94.533V17.2848C94.533 17.1653 94.4433 17.1355 94.3833 17.2549Z" fill="#FF4800"/>
<path d="M112.193 8.68656C110.128 8.68656 108.332 10.4776 108.332 12.9851C108.332 15.4925 110.128 17.2836 112.193 17.2836C114.229 17.2836 116.055 15.4925 116.055 12.9851C116.055 10.4776 114.229 8.68656 112.193 8.68656ZM115.995 17.1642C115.995 17.0448 115.906 17.015 115.846 17.1344C114.828 19.2836 113.032 20.2389 111.206 20.2389C107.883 20.2389 104.859 17.4329 104.859 12.9851C104.859 8.53731 107.883 5.73133 111.206 5.73133C113.032 5.73133 114.828 6.68659 115.846 8.83579C115.906 8.95516 115.995 8.9254 115.995 8.80603V6.1194H119.587V19.1642C119.587 23.015 116.923 26 112.313 26C109.739 26 107.494 25.1045 105.847 23.5823L108.003 21.2538C109.439 22.3881 110.577 22.9852 112.253 22.9852C114.888 22.9852 115.995 21.1343 115.995 18.8359V17.1642Z" fill="#FF4800"/>
<path d="M125.752 6.11798V9.13294C125.752 9.19258 125.812 9.22246 125.842 9.13294C126.321 6.6553 127.399 5.72992 129.255 5.72992H129.584V9.49116H127.968C126.501 9.49116 125.752 10.6255 125.752 12.2375V19.9688H122.16V6.11798H125.752Z" fill="#FF4800"/>
<path d="M137.187 8.9255C135.032 8.9255 133.265 10.7166 133.265 13.0449C133.265 15.3733 135.032 17.1643 137.187 17.1643C139.342 17.1643 141.109 15.3733 141.109 13.0449C141.109 10.7166 139.342 8.9255 137.187 8.9255ZM137.217 5.67176C141.258 5.67176 144.581 8.98523 144.581 13.0449C144.581 17.1046 141.258 20.418 137.217 20.418C133.116 20.418 129.793 17.1046 129.793 13.0449C129.793 8.98523 133.116 5.67176 137.217 5.67176Z" fill="#FF4800"/>
<path d="M152.033 20.418C148.53 20.418 146.285 18.2986 146.285 15.1942V6.11949H149.877V14.9255C149.877 16.2987 150.776 17.1941 152.123 17.1941C153.35 17.1941 154.278 16.2688 154.278 14.9553V6.11949H157.87V15.1942C157.87 18.2986 155.445 20.418 152.033 20.418Z" fill="#FF4800"/>
<path d="M167.81 17.4032C169.905 17.4032 171.731 15.5824 171.731 13.045C171.731 10.5077 169.905 8.68679 167.81 8.68679C165.744 8.68679 163.888 10.5077 163.888 13.045C163.888 15.5824 165.744 17.4032 167.81 17.4032ZM164.097 8.83602C165.115 6.68682 166.941 5.73156 168.797 5.73156C172.15 5.73156 175.204 8.56742 175.204 13.045C175.204 17.5226 172.15 20.3585 168.797 20.3585C166.941 20.3585 165.115 19.4033 164.097 17.254C164.038 17.1346 163.948 17.1644 163.948 17.2839V25.6719H160.355V6.11962H163.948V8.80625C163.948 8.92562 164.038 8.95539 164.097 8.83602Z" fill="#FF4800"/>
<path d="M177.742 6.16979V6.53671H177.12V8.24219H176.683V6.53671H176.059V6.16979H177.742Z" fill="#FF4800"/>
<path d="M179.374 6.16979H179.999V8.24219H179.594V6.84045C179.594 6.80017 179.595 6.74365 179.595 6.67101C179.597 6.5984 179.597 6.5424 179.597 6.50304L179.203 8.24219H178.781L178.39 6.50304C178.39 6.5424 178.391 6.5984 178.392 6.67101C178.392 6.74365 178.393 6.80017 178.393 6.84045V8.24219H177.988V6.16979H178.62L178.999 7.79926L179.374 6.16979Z" fill="#FF4800"/>
</g>
<defs>
<clipPath id="clip0_2078_36113">
<rect width="180" height="26" fill="white"/>
</clipPath>
</defs>
</svg>
