<svg width="379" height="65" viewBox="0 0 379 65" fill="none" xmlns="http://www.w3.org/2000/svg">
<path d="M0 15.0134H27.1295V20.4005H6.33764V31.8967H25.9065V37.2283H6.33764V55.2779H0V15.0134Z" fill="#1C1D20"/>
<path d="M36.9045 15.0134V21.4002H31.1228V15.0134H36.9045ZM36.9045 25.3989V55.2779H31.1228V25.3989H36.9045Z" fill="#1C1D20"/>
<path d="M50.4717 29.7308C52.195 26.7873 55.1971 24.8435 59.8669 24.8435C67.0941 24.8435 69.8737 29.5086 69.8737 36.4508V55.2779H64.092V38.0058C64.092 33.7295 63.4249 29.6752 57.9212 29.6752C52.8622 29.6752 50.4717 33.2296 50.4717 39.2276V55.2779H44.6899V25.3989H50.4717V29.7308Z" fill="#1C1D20"/>
<path d="M75.3213 47.2249C75.3213 39.9495 83.9383 37.9501 95.5017 36.7839V36.173C95.5017 30.8969 92.722 29.1197 89.0528 29.1197C85.0501 29.1197 82.7708 31.1191 82.5484 34.8401H76.7111C77.1559 28.4533 82.4372 24.6768 89.2752 24.6768C97.0027 24.6768 101.395 28.3977 101.339 37.3392C101.339 38.0612 101.228 43.2262 101.228 44.5035C101.228 49.002 101.506 52.612 102.062 55.2777H96.5023C96.28 54.1115 96.1688 53.2784 96.002 51.3346C94.223 54.3891 90.8874 55.9997 85.9952 55.9997C79.9355 55.9997 75.3213 52.6675 75.3213 47.2249ZM95.7796 41.0602C86.4955 41.9488 81.6033 43.2817 81.6033 47.1138C81.6033 49.8351 83.7159 51.5568 87.2739 51.5568C91.9993 51.5568 95.7796 49.1687 95.7796 43.2262V41.0602Z" fill="#1C1D20"/>
<path d="M114.236 55.2779H108.454V15.0134H114.236V55.2779Z" fill="#1C1D20"/>
<path d="M151.484 38.2837C150.65 38.3393 149.76 38.3393 148.871 38.3393H141.922V55.2781H135.584V15.0137H148.37C159.211 15.0137 165.716 17.2907 165.716 26.6209C165.716 32.3968 162.991 35.6735 157.932 37.2285L167.217 55.2781H160.101L151.484 38.2837ZM141.922 20.2342V33.1743H149.204C155.153 33.1743 159.211 32.2857 159.211 26.732C159.211 21.1783 154.819 20.2342 149.093 20.2342H141.922Z" fill="#1C1D20"/>
<path d="M199.347 40.4497C199.347 51.2239 191.898 56.0001 184.782 56.0001C177.666 56.0001 170.272 51.2239 170.272 40.4497C170.272 29.6755 177.721 24.8438 184.782 24.8438C191.842 24.8438 199.347 29.6199 199.347 40.4497ZM184.782 51.1128C189.229 51.1128 193.232 47.7251 193.232 40.4497C193.232 33.1743 189.229 29.731 184.782 29.731C180.334 29.731 176.387 32.8966 176.387 40.4497C176.387 48.0028 180.446 51.1128 184.782 51.1128Z" fill="#1C1D20"/>
<path d="M223.587 51.0571C221.864 54.1116 218.973 55.9999 214.47 55.9999C207.41 55.9999 204.686 51.668 204.686 44.3926V25.3989H210.467V42.8376C210.467 47.114 211.19 51.1126 216.416 51.1126C221.308 51.1126 223.643 47.5583 223.643 41.6158V25.3989H229.425V55.2779H223.587V51.0571Z" fill="#1C1D20"/>
<path d="M242.935 29.7308C244.658 26.7873 247.66 24.8435 252.33 24.8435C259.557 24.8435 262.337 29.5086 262.337 36.4508V55.2779H256.555V38.0058C256.555 33.7295 255.888 29.6752 250.384 29.6752C245.325 29.6752 242.935 33.2296 242.935 39.2276V55.2779H237.153V25.3989H242.935V29.7308Z" fill="#1C1D20"/>
<path d="M289.745 15.0134H295.527V55.2779H289.745V51.0571C287.911 54.1671 284.853 55.9999 280.405 55.9999C273.456 55.9999 267.508 50.1685 267.508 40.3939C267.508 30.6194 273.456 24.8435 280.405 24.8435C284.853 24.8435 287.911 26.6762 289.745 29.7863V15.0134ZM281.74 29.6752C276.903 29.6752 273.679 33.6739 273.679 40.3939C273.679 47.1139 276.903 51.1681 281.74 51.1681C286.187 51.1681 289.968 47.7804 289.968 40.3939C289.968 33.0075 286.187 29.6752 281.74 29.6752Z" fill="#1C1D20"/>
<path d="M375.403 50.0873H335.566C333.083 50.0873 330.711 51.0684 328.951 52.8271L321.538 60.2321C319.287 62.4813 315.432 60.8893 315.432 57.7051V13.2198C315.441 9.23041 318.675 6 322.669 6H375.412C378.6 6 380.193 9.85058 377.942 12.0998L365.721 24.281C363.636 26.3544 363.636 29.7329 365.721 31.8063L377.942 43.9874C380.203 46.2367 378.6 50.0873 375.412 50.0873H375.403Z" fill="#FF4800"/>
<path d="M334.524 18.1968H338.563L346.172 38.5247H341.818L340.389 34.401H332.472L331.042 38.5247H326.947L334.524 18.1968ZM333.627 31.1247H339.241L336.438 23.1032L333.635 31.1247H333.627Z" fill="white"/>
<path d="M354.039 38.5247H350.024V18.1968H354.039V38.5247Z" fill="white"/>
</svg>
