<svg width="150" height="25" viewBox="0 0 150 25" fill="none" xmlns="http://www.w3.org/2000/svg">
<g clip-path="url(#clip0_2078_36221)">
<path d="M58.0728 13.482L56.0855 13.2984C54.7607 13.1883 54.2455 12.7109 54.2455 11.9398C54.2455 10.9852 55.0551 10.3977 56.6008 10.3977C58.0728 10.3977 58.8088 11.0219 58.9192 12.0867H63.5929C63.2985 9.00234 61.1273 6.83594 56.7112 6.83594C52.1111 6.83594 49.5718 9.18594 49.5718 12.2703C49.5718 15.1711 51.1542 16.75 55.0919 17.0805L57.0792 17.2273C58.6248 17.3375 59.1768 17.8516 59.1768 18.7695C59.1768 19.7242 58.3672 20.4586 56.7112 20.4586C55.1655 20.4586 54.2455 19.7609 54.0983 18.5492H49.167C49.6086 21.8906 51.9639 24.057 56.7112 24.057C61.3113 24.057 63.8873 21.707 63.8873 18.5125C63.8505 15.4281 62.1577 13.8492 58.0728 13.482ZM41.8805 6.83594C38.9364 6.83594 37.2068 8.37813 36.3603 11.4992H36.0659V7.09297H31.429V23.8H36.3603V14.0695C36.3603 11.8297 37.5012 10.618 39.562 10.618C41.6228 10.618 42.6165 11.8664 42.6165 14.0328V23.7633H47.5478V13.1883C47.5846 9.14922 45.4501 6.83594 41.8805 6.83594ZM26.6081 0.59375C24.9153 0.59375 23.6641 1.69531 23.6641 3.38437C23.6641 5.07344 24.9153 6.175 26.5713 6.175C28.2274 6.175 29.4786 5.07344 29.4786 3.38437C29.5154 1.73203 28.2642 0.59375 26.6081 0.59375ZM29.0738 7.09297H24.1425V23.8H29.0738V7.09297ZM71.6523 3.56797H68.4874C68.377 6.24844 67.2362 7.42344 64.6601 7.64375V11.0219H66.6842V18.3656C66.6842 22.0742 68.7818 24.057 73.0139 24.057C73.7867 24.057 74.5963 23.9469 75.3692 23.7633V19.7977C74.9644 19.8711 74.5595 19.9078 74.1915 19.8711C72.4251 19.8711 71.6523 19.2102 71.6523 17.3375V11.0219H75.9948V7.09297H71.6523V3.56797ZM150.001 11.0219V7.09297H145.659V3.56797H142.567C142.494 5.44063 141.942 6.50547 140.727 7.09297V18.3656C140.727 22.0742 142.825 24.057 147.057 24.057C147.83 24.057 148.64 23.9469 149.412 23.7633V19.7977C149.008 19.8711 148.603 19.9078 148.235 19.8711C146.468 19.8711 145.695 19.2102 145.695 17.3375V11.0219H150.001ZM133.809 11.7562H133.514V7.09297H128.951V23.8H133.882V14.7672C133.882 12.2703 135.023 11.2055 137.599 11.2055C138.041 11.2055 138.519 11.2422 139.182 11.3523V7.05625C138.74 6.90938 138.262 6.83594 137.783 6.83594C135.759 6.83594 134.398 7.97422 133.809 11.7562ZM102.271 19.8344C99.9521 19.8344 98.2592 18.2922 98.2592 15.318C98.2592 12.6742 99.8049 11.0219 102.197 11.0219C104.258 11.0219 105.399 12.1602 105.767 13.9961H110.772C110.293 9.7 107.202 6.83594 102.271 6.83594C96.8608 6.83594 93.2911 10.5078 93.2911 15.5383C93.2911 20.7523 96.7136 24.0938 102.197 24.0938C107.202 24.0938 110.44 21.3031 110.882 16.8234H105.877C105.619 18.6227 104.368 19.8344 102.271 19.8344ZM84.5326 6.83594C80.2269 6.83594 77.6508 8.92891 77.1724 12.7109H81.9197C82.0669 11.3891 82.9133 10.7281 84.4222 10.7281C85.931 10.7281 86.6302 11.4258 86.6302 12.4172C86.6302 13.225 86.115 13.6656 84.7534 13.9227L82.5085 14.3266C78.534 15.0609 77.0252 16.6766 77.0252 19.2836C77.0252 22.2578 79.1228 24.0938 82.0301 24.0938C84.3854 24.0938 85.931 22.9922 86.6302 20.2383H86.9246V23.8H91.5983V12.8945C91.5615 9.1125 89.3167 6.83594 84.5326 6.83594ZM83.9805 20.7156C82.6557 20.7156 81.8829 20.018 81.8829 18.9531C81.8829 18.0719 82.3981 17.4844 83.7229 17.1906L84.643 16.9703C85.4526 16.7867 86.0414 16.5297 86.6302 16.0523V17.8516C86.6302 19.8711 85.563 20.7156 83.9805 20.7156ZM119.641 6.83594C115.335 6.83594 112.759 8.92891 112.28 12.7109H117.028C117.175 11.3891 118.021 10.7281 119.53 10.7281C121.039 10.7281 121.738 11.4258 121.738 12.4172C121.738 13.225 121.223 13.6656 119.861 13.9227L117.616 14.3266C113.642 15.0609 112.133 16.6766 112.133 19.2836C112.133 22.2578 114.231 24.0938 117.138 24.0938C119.493 24.0938 121.039 22.9922 121.738 20.2383H122.033V23.8H126.706V12.8945C126.706 9.1125 124.425 6.83594 119.641 6.83594ZM119.088 20.7156C117.764 20.7156 116.991 20.018 116.991 18.9531C116.991 18.0719 117.506 17.4844 118.831 17.1906L119.751 16.9703C120.561 16.7867 121.149 16.5297 121.738 16.0523V17.8516C121.738 19.8711 120.671 20.7156 119.088 20.7156Z" fill="#FF4800"/>
<path d="M15.8243 4.59687C14.7939 4.59687 14.0947 5.0375 13.4323 5.99219L11.5186 8.74609V0.851562H6.88175V8.74609L4.96811 5.99219C4.30569 5.0375 3.56968 4.59687 2.57605 4.59687C1.03042 4.59687 0.0368008 5.73516 0 7.13047C0 8.30547 0.552012 9.11328 1.72964 9.84766L9.16339 14.6211L16.5972 9.84766C17.7748 9.07656 18.3636 8.30547 18.3268 7.13047C18.3636 5.73516 17.37 4.59687 15.8243 4.59687Z" fill="#FF4800"/>
<path d="M9.2 15.7578C13.6161 15.7578 17.2594 19.0625 17.2594 23.7992H1.14062C1.14062 19.0625 4.7839 15.7578 9.2 15.7578Z" fill="#FF4800"/>
</g>
<defs>
<clipPath id="clip0_2078_36221">
<rect width="150" height="23.5" fill="white" transform="translate(0 0.59375)"/>
</clipPath>
</defs>
</svg>
