<svg width="150" height="60" viewBox="0 0 150 60" fill="none" xmlns="http://www.w3.org/2000/svg">
<g clip-path="url(#clip0_2078_36159)">
<path d="M116.676 0V29.92C115.632 30.72 114.748 31.6 113.865 32.56V0H80.5407V27.28H77.8105V0H44.5664V27.28H41.7559V0H8.51178V31.12L0 59.36H7.46788L11.242 46.88H12.2859L18.469 59.36H27.4625L21.44 46.88H35.091L31.3169 59.36H39.5075L43.2816 46.88H45.0482H47.6178H47.8587H63.2762L59.6627 59.36H67.8533L71.3865 46.88H75.0803L75.1606 59.36H82.0664L90.0161 46.88H95.2355L92.5857 59.36H100.696L103.346 46.88H108.003C107.843 50.72 108.806 54.24 111.376 56.56C114.507 59.44 119.325 60 122.939 60C127.837 60 132.896 59.28 137.955 58.16L140.766 46.88H150V0H116.676ZM40.6317 28.88L40.1499 30.48L35.7334 45.12L35.5728 45.6H20.9582L19.834 43.2L35.4925 27.2H25.455L13.1692 40.48L17.1039 27.28H9.63597V1.2H40.5514V28.88H40.6317ZM49.2238 41.28C48.9026 41.28 48.5814 41.36 48.2602 41.36C47.7784 41.36 47.4572 41.36 47.136 41.36H45.1285L46.0118 38L46.4133 36.32L47.4572 32.4C47.939 32.4 48.3405 32.4 48.8223 32.4H50.348C52.9979 32.4 54.6039 32.56 55.2463 33.36C55.7281 34 55.6477 35.04 55.0857 36.72C54.2024 39.52 52.9979 41.04 49.2238 41.28ZM71.7077 45.68L75 34.16L75.0803 45.68H71.7077ZM76.6863 27.28H68.9775L63.6777 45.68H55.4068C59.5824 44.16 62.152 41.2 62.955 36.8C63.5974 33.44 63.2762 31.2 61.9111 29.52C59.8233 27.04 55.6477 27.2 51.954 27.2C51.3116 27.2 45.8512 27.2 45.8512 27.2V1.2H76.7666V27.28H76.6863ZM95.3961 45.68H90.7388L97.8051 34.64L95.3961 45.68ZM112.741 27.76V34.16C110.573 37.12 109.208 40.4 108.646 42.96C108.405 43.84 108.244 44.8 108.164 45.68H103.587L107.441 27.28H94.3522L82.6285 45.68H81.7452V1.2H112.661V27.76H112.741ZM130.567 53.2C128.801 53.52 127.034 53.76 125.348 53.76C120.851 53.76 117.8 51.68 117.719 46.88H132.093L130.567 53.2ZM148.796 45.68H141.006L142.291 40.56H126.713L125.428 45.68H117.88V44.64C117.96 44.08 118.121 43.44 118.282 42.8C119.647 37.28 123.34 31.76 129.604 31.76C132.093 31.76 134.582 32.72 134.261 36.16H143.576C143.978 34.56 144.54 31.84 142.773 29.28C140.766 26.56 136.831 25.44 131.611 25.44C127.918 25.44 122.537 26 117.88 29.04V1.2H148.796V45.68Z" fill="#FF4800"/>
</g>
<defs>
<clipPath id="clip0_2078_36159">
<rect width="150" height="60" fill="white"/>
</clipPath>
</defs>
</svg>
