<svg width="162" height="41" viewBox="0 0 162 41" fill="none" xmlns="http://www.w3.org/2000/svg">
<g clip-path="url(#clip0_2078_36191)">
<path d="M80.6633 20.5145L78.5856 24.9534H76.7062L76.507 20.5145H76.4347L75.5208 24.9534H73.5508L74.9205 18.3125H78.1665L78.2163 22.1294H78.298L79.9042 18.3125H83.2435L81.8769 24.9534H79.7947L80.7472 20.5145H80.6633Z" fill="#FF4800"/>
<path d="M89.1603 22.3925L89.0356 19.8777H88.9588L87.7448 22.3925H89.1603ZM87.8561 18.3125H90.8607L91.3232 24.9534H89.1666L89.1383 23.7783H87.2073L86.6815 24.9534H84.6562L87.8561 18.3125Z" fill="#FF4800"/>
<path d="M104.424 19.8786H102.98L103.303 18.3125H108.345L108.022 19.8786H106.577L105.53 24.9534H103.374L104.424 19.8786Z" fill="#FF4800"/>
<path d="M116.941 18.3125H119.864L120.507 22.2768H120.57L121.389 18.3125H123.436L122.065 24.9534H119.145L118.595 20.8933H118.522L117.683 24.9534H115.57L116.941 18.3125Z" fill="#FF4800"/>
<path d="M97.755 21.0791C98.3647 21.0791 98.6245 20.7744 98.6245 20.3722C98.6245 20.0449 98.4361 19.8791 97.9955 19.8791H97.454L97.2059 21.0791H97.755ZM95.6181 18.3125H98.7981C100.35 18.3125 100.9 19.1812 100.9 20.007C100.9 21.2589 99.8529 21.6232 99.3352 21.7191V21.8122C99.9655 21.8922 100.25 22.3432 100.25 22.9001C100.25 23.3353 100.154 23.785 100.154 24.3609C100.154 24.5882 100.197 24.8671 100.211 24.9534H97.9053C97.9004 24.9172 97.8721 24.6976 97.8721 24.5683C97.8721 24.011 98.0238 23.6201 98.0238 23.0117C98.0238 22.7319 97.9129 22.4635 97.4742 22.4635H96.9174L96.4073 24.9534H94.2461L95.6181 18.3125Z" fill="#FF4800"/>
<path d="M111.079 18.3125H113.233L111.864 24.9534H109.707L111.079 18.3125Z" fill="#FF4800"/>
<path d="M1.97009 18.3125H4.12408L3.07782 23.3864H5.18694L4.87871 24.9534H0.597656L1.97009 18.3125Z" fill="#FF4800"/>
<path d="M26.9037 18.3125H29.0581L28.469 21.1672H28.5242L30.4337 18.3125H32.7286L30.3475 21.4461L31.5383 24.9534H29.2448L28.3506 22.0033H28.2968L27.6884 24.9534H25.5312L26.9037 18.3125Z" fill="#FF4800"/>
<path d="M38.0842 22.463H36.7988L36.2847 24.9534H34.1289L35.5004 18.3125H37.6558L37.1412 20.8033H38.4275L38.9421 18.3125H41.097L39.7263 24.9534H37.5696L38.0842 22.463Z" fill="#FF4800"/>
<path d="M53.2396 18.3125H57.7697L57.4462 19.88H55.0701L54.8687 20.8576H57.0222L56.6965 22.425H54.5452L54.3473 23.3864H56.8311L56.5045 24.9534H51.8672L53.2396 18.3125Z" fill="#FF4800"/>
<path d="M44.9775 18.3125H49.508L49.1849 19.88H46.8089L46.6074 20.8576H48.7605L48.4348 22.425H46.2839L46.0852 23.3864H48.5694L48.2428 24.9534H43.6055L44.9775 18.3125Z" fill="#FF4800"/>
<path d="M10.7304 23.387C11.6757 23.387 12.079 21.0136 12.079 20.4667C12.079 20.1707 11.9462 19.8832 11.5213 19.8832C10.5451 19.8832 10.17 22.3008 10.17 22.7985C10.17 23.2731 10.4701 23.387 10.7304 23.387ZM11.7519 18.2227C13.3568 18.2227 14.2204 19.1343 14.2204 20.5671C14.2204 22.3103 13.3263 25.0466 10.5002 25.0466C8.94022 25.0466 8.03125 24.1784 8.03125 22.714C8.03125 20.7854 9.02053 18.2227 11.7519 18.2227Z" fill="#FF4800"/>
<path d="M62.9779 23.3864H63.6065C64.4809 23.3864 65.0884 22.2257 65.0884 20.7916C65.0884 20.2754 64.8573 19.88 64.087 19.88H63.7025L62.9779 23.3864ZM61.8747 18.3125H64.3154C66.3971 18.3125 67.2581 19.4863 67.2581 20.7853C67.2581 23.2526 65.7161 24.9539 63.1291 24.9539H60.5L61.8747 18.3125Z" fill="#FF4800"/>
<path d="M22.4452 22.4601C22.0849 24.2463 20.7838 25.0423 19.2705 25.0423C17.676 25.0423 16.8047 24.1383 16.8047 22.7087C16.8047 21.0359 17.65 18.2188 20.5285 18.2188C21.8467 18.2188 22.8997 18.711 22.8669 20.1256C22.8624 20.3304 22.8189 20.6658 22.8014 20.8004H20.7946C20.8022 20.7598 20.8385 20.5745 20.8385 20.381C20.8385 20.0059 20.5653 19.8802 20.3109 19.8802C19.3275 19.8802 18.9519 22.2671 18.9519 22.8032C18.9519 23.2041 19.1821 23.383 19.502 23.383C19.8313 23.383 20.1395 23.1259 20.4011 22.4597H22.4452V22.4601Z" fill="#FF4800"/>
<path d="M130.282 22.9648C130.099 23.1502 130.099 23.1511 130.282 22.9648V22.9648Z" fill="#FF4800"/>
<path d="M161.887 13.9883H147.246C149.166 6.70332 150.904 0.523438 150.904 0.523438C150.904 0.523438 144.313 7.62355 138.461 13.9883L80.4258 14.1103C80.4285 14.1103 80.45 14.1103 80.4859 14.1112L80.4258 14.1103L137.021 15.5476C132.668 20.2111 130.374 22.8719 130.282 22.9637L130.304 22.9429C130.491 22.7747 138.326 15.5806 138.326 15.5806L145.214 15.7555L144.177 21.2281L111.902 39.6226C111.823 39.6665 111.778 39.6918 111.774 39.695C111.774 39.695 137.401 26.1298 143.872 22.833C143.872 22.833 141.6 34.7734 141.6 34.8245C141.6 34.8217 141.602 34.8141 141.604 34.8014L141.6 34.8245L141.628 34.7074C141.835 33.9286 143.198 29.2362 145.048 22.2857C153.47 17.9585 161.887 13.9883 161.887 13.9883ZM146.703 7.89338L145.548 13.9883H140.061L146.703 7.89338ZM146.74 15.7944L153.412 15.9639L145.487 20.4814C145.92 18.8742 146.306 17.4098 146.74 15.7944Z" fill="#FF4800"/>
</g>
<defs>
<clipPath id="clip0_2078_36191">
<rect width="162" height="40" fill="white" transform="translate(0 0.09375)"/>
</clipPath>
</defs>
</svg>
