<svg width="145" height="45" viewBox="0 0 145 45" fill="none" xmlns="http://www.w3.org/2000/svg">
<g clip-path="url(#clip0_2078_36130)">
<path d="M2.1137 2.11069C2.1137 1.77298 1.18367 0.844278 0.845481 0.844278H0V0H4.90379L9.97668 12.7486H10.0612L15.3878 0H19.7843V0.844278H18.9388C18.6006 0.844278 17.6706 1.77298 17.6706 2.11069V14.7749C17.6706 15.1126 18.6851 16.0413 18.9388 16.0413H19.7843V16.8856H13.2741V16.0413H14.1195C14.4577 16.0413 15.3878 15.1126 15.3878 14.7749V2.44841L9.30029 17.1388L3.12828 2.19512V14.6904C3.12828 15.0281 4.14286 15.9568 4.3965 15.9568H5.24198V16.8011H0V15.9568H0.845481C1.18367 15.9568 2.1137 15.0281 2.1137 14.6904V2.11069Z" fill="#FF4800"/>
<path d="M26.9709 9.62435C27.3091 7.9358 26.9709 6.4161 25.1108 6.4161C22.9126 6.4161 21.898 8.18908 21.898 10.7219C21.898 13.1703 23.4199 15.1966 25.9563 15.1966C27.8164 15.1966 28.6618 14.5212 29.4228 13.2547H30.0992C29.4228 15.6187 27.9009 17.1384 25.1954 17.1384C22.1516 17.1384 20.207 14.5212 20.207 11.4818C20.207 7.9358 22.5744 5.65625 25.449 5.65625C27.14 5.65625 28.3237 6.16282 29.3382 7.17595L27.7318 9.62435H26.9709Z" fill="#FF4800"/>
<path d="M49.0389 3.29393C49.8844 3.29393 50.4762 2.70293 50.4762 1.85866C50.4762 1.01438 49.7998 0.507812 49.0389 0.507812C48.1934 0.507812 47.6016 1.01438 47.6016 1.85866C47.6016 2.70293 48.1934 3.29393 49.0389 3.29393Z" fill="#FF4800"/>
<path d="M64.5115 16.0413C64.1733 16.0413 63.3278 15.2814 63.3278 14.8593V8.78049C63.3278 6.92308 61.9751 5.65666 60.2841 5.65666C58.3395 5.65666 57.3249 6.75422 55.9722 8.10507L55.5494 5.90994H52.0829V6.75422H52.7593C53.0975 6.75422 53.943 7.5985 53.943 7.93621V14.9437C53.943 15.2814 53.0975 16.1257 52.7593 16.1257H52.0829H51.4066C51.0684 16.1257 50.2229 15.3659 50.2229 14.9437V5.90994H46.3337V6.75422H47.0101C47.3482 6.75422 48.1937 7.51407 48.1937 7.85178V14.8593C48.1937 15.197 47.3482 16.0413 47.0101 16.0413H46.3337H45.7418C45.4036 16.0413 44.0509 15.0281 43.7127 14.606L37.7943 6.75422L41.9372 2.36398C42.1908 2.11069 43.7972 0.844278 44.1354 0.844278H44.9809V0H38.8934V0.844278H39.7389C40.0771 0.844278 41.0071 2.02627 40.7535 2.27955L34.7506 9.03377V2.11069C34.7506 1.77298 35.7652 0.844278 36.0188 0.844278H36.8643V0H30.2695V0.844278H31.115C31.4532 0.844278 32.3832 1.77298 32.3832 2.11069V14.7749C32.3832 15.1126 31.3687 16.0413 31.115 16.0413H30.2695V16.8856H36.8643V16.0413H36.0188C35.6806 16.0413 34.7506 15.1126 34.7506 14.7749V10.3002L36.4415 8.44278L42.2754 16.8856H46.4182H52.252H58.0013V16.0413H57.4095C57.0713 16.0413 56.2258 15.2814 56.2258 14.8593V9.28706C56.2258 8.52721 58.2549 7.00751 59.7768 7.00751C60.9605 7.00751 61.5523 7.85178 61.5523 8.86492V14.8593C61.5523 15.197 60.7068 16.0413 60.3687 16.0413H59.7768V16.8856H65.1033V16.0413H64.5115Z" fill="#FF4800"/>
<path d="M66.5411 13C66.5411 14.0131 68.0629 16.2082 70.4303 16.2082C71.783 16.2082 72.544 15.7016 72.544 14.6885C72.544 13.4221 71.4448 13.0844 70.5148 12.6622C69.7539 12.3245 69.162 12.0713 68.232 11.6491C66.8792 11.0581 65.9492 10.1294 65.9492 8.69414C65.9492 6.7523 67.1329 5.57031 69.2466 5.57031C70.4303 5.57031 71.1067 6.16131 71.9521 6.16131C72.2903 6.16131 72.4594 6.07688 72.544 5.8236H73.1358V9.20071H72.4594C72.4594 8.272 71.1912 6.41459 69.162 6.41459C67.8938 6.41459 67.302 7.00558 67.302 7.84986C67.302 8.77857 67.9784 9.11628 69.0775 9.62285C69.923 9.96056 70.5148 10.2138 71.4448 10.636C72.6285 11.0581 73.9813 12.0713 73.9813 13.8442C73.9813 15.9549 72.544 17.1369 70.5148 17.1369C69.162 17.1369 68.3166 16.4615 67.3865 16.4615C66.9638 16.4615 66.7947 16.5459 66.5411 16.7992H66.0338V12.9155H66.5411V13Z" fill="#FF4800"/>
<path d="M74.5703 11.3973C74.5703 8.18908 76.7686 5.65625 79.6432 5.65625C82.0951 5.65625 83.5324 7.34481 83.617 9.53993L83.7015 10.2998L76.4304 10.8908C76.4304 13.0859 77.9522 15.281 80.4041 15.281C82.2642 15.281 83.1097 14.6056 83.7861 13.3392H84.4624C83.7015 15.7032 82.3487 17.2229 79.7278 17.2229C76.5995 17.1384 74.5703 14.4367 74.5703 11.3973ZM81.7569 9.62436C81.926 8.10466 81.6724 6.50053 79.5587 6.50053C77.2759 6.50053 76.3458 8.35794 76.3458 10.0465L81.7569 9.62436Z" fill="#FF4800"/>
<path d="M85.5618 7.93642C85.3927 7.59871 84.3781 6.75443 84.1245 6.75443H83.6172V5.91016H89.451V6.75443H88.7746C88.4364 6.75443 87.76 7.51428 87.76 7.93642L90.2965 13.7619L92.8329 7.93642C92.8329 7.51428 92.1565 6.75443 91.9029 6.75443H91.2265V5.91016H95.623V6.75443H95.1157C94.8621 6.75443 94.1012 7.59871 93.8475 7.93642L90.1274 16.3792L87.3373 22.458L86.3227 22.0359L89.2819 16.0415L85.5618 7.93642Z" fill="#FF4800"/>
<path d="M32.6341 25.5817C32.6341 26.9326 33.5641 28.0302 35.0014 28.5367C37.1997 30.9007 39.8207 33.3491 42.1035 35.3754C42.7799 34.2778 42.949 33.1802 42.949 31.745C42.949 30.2253 41.9344 29.2966 40.2434 29.2121V28.3679H46.2463V29.2121H45.6545C45.3163 29.2121 44.1326 30.563 44.1326 31.0696C44.0481 32.5048 43.7099 34.2778 42.6108 35.7975C43.879 36.8951 45.0627 37.8238 46.0772 38.4992H47.0918V39.3435H45.2318C43.6254 39.3435 42.4417 38.9213 41.0044 37.6549C39.6516 38.9213 37.9606 39.6812 35.4242 39.6812C32.7187 39.6812 30.0977 37.6549 30.0977 34.6999C30.0977 32.336 31.2813 30.6474 32.8032 29.5499C31.9577 28.5367 31.4504 27.5236 31.4504 26.0039C31.4504 23.5555 33.0568 22.2891 35.5087 22.2891C37.0306 22.2891 37.8761 22.7956 38.5525 22.7956C38.8907 22.7956 39.1443 22.7956 39.3134 22.4579H40.0743V26.426H39.3134C39.3134 25.3285 37.6224 23.0489 35.4242 23.0489C33.7332 23.1333 32.6341 24.062 32.6341 25.5817ZM31.8732 33.6868C31.8732 36.1352 34.4096 38.4148 36.8615 38.4148C38.3834 38.4148 39.567 37.9926 40.4971 37.3172C38.0452 35.2065 35.3396 32.5893 33.2259 30.1408C32.3805 30.9851 31.8732 31.9138 31.8732 33.6868Z" fill="#FF4800"/>
<path d="M64.4255 28.5367C64.4255 26.7637 62.4809 23.3022 59.2681 23.3022C56.3089 23.3022 54.6179 24.9063 54.2798 28.7056C54.1952 30.2253 54.1952 31.4917 54.3643 33.0114C54.618 35.9664 56.6471 38.4148 60.1136 38.4148C63.0728 38.4148 64.4255 37.1484 65.5247 34.9532H66.3701C65.271 37.9926 62.9037 39.7656 59.5217 39.7656C54.7025 39.7656 51.5742 35.7975 51.5742 30.9851C51.5742 26.1727 54.3643 22.2891 59.099 22.2891C60.8745 22.2891 62.0582 23.0489 63.3264 23.0489C63.8337 23.0489 64.0873 22.8801 64.341 22.6268H65.1019V28.6211H64.4255V28.5367Z" fill="#FF4800"/>
<path d="M67.5547 33.9403C67.5547 30.3943 70.0911 28.1992 72.9658 28.1992C75.8404 28.1992 78.3768 30.3943 78.3768 33.9403C78.3768 37.4863 75.8404 39.7658 72.9658 39.7658C70.0911 39.7658 67.5547 37.4863 67.5547 33.9403ZM76.2631 35.7977C76.4322 34.7002 76.4322 33.1805 76.2631 32.0829C76.094 30.3099 75.0795 29.1279 73.0503 29.1279C71.1057 29.1279 70.0911 30.3099 69.8375 32.0829C69.6684 33.1805 69.6684 34.7002 69.8375 35.7977C70.0911 37.4863 71.0212 38.7527 73.0503 38.7527C75.0795 38.6683 76.094 37.4863 76.2631 35.7977Z" fill="#FF4800"/>
<path d="M96.216 37.4003C96.216 37.738 97.0615 38.5823 97.3997 38.5823H97.907V39.4266H92.4114V38.5823H93.0032C93.3414 38.5823 94.1869 37.8225 94.1869 37.4003V31.3215C94.1869 30.224 93.6796 29.5486 92.4959 29.5486C91.0586 29.5486 89.2831 30.8994 89.2831 31.6592V37.4003C89.2831 37.738 90.1286 38.5823 90.4668 38.5823H91.0586V39.4266H85.4784V38.5823H86.0703C86.4085 38.5823 87.2539 37.8225 87.2539 37.4003V31.3215C87.2539 30.224 86.6621 29.5486 85.4784 29.5486C84.0411 29.5486 82.2656 30.9838 82.2656 31.7437V37.4003C82.2656 37.738 83.1111 38.5823 83.4493 38.5823H84.0411V39.4266H78.4609V38.5823H79.0528C79.391 38.5823 80.2364 37.8225 80.2364 37.4003V30.3928C80.2364 30.0551 79.391 29.2108 79.0528 29.2108H78.4609V28.3666H81.8429L82.2656 30.4773C83.5338 29.1264 84.2948 28.1133 86.2394 28.1133C87.6767 28.1133 88.9449 28.8731 89.114 30.3928C90.4668 29.042 91.3122 28.1133 93.1723 28.1133C94.7787 28.1133 96.1315 29.2108 96.1315 31.2371V37.4003H96.216Z" fill="#FF4800"/>
<path d="M101.119 28.4525L101.457 30.7321C102.387 28.9591 103.571 28.1992 105.431 28.1992C108.136 28.1992 109.743 30.4788 109.743 33.7715C109.743 37.0641 107.883 39.6814 105.262 39.6814C103.317 39.6814 102.302 38.9215 101.542 37.4863V42.7208C101.542 43.0585 102.387 43.9028 102.725 43.9028H103.486V44.7471H97.6523V43.9028H98.4133C98.7515 43.9028 99.597 43.1429 99.597 42.7208V30.4788C99.597 30.1411 98.7515 29.2968 98.4133 29.2968H97.6523V28.4525H101.119ZM101.542 32.4206V35.2911C101.542 36.9797 102.894 38.4994 104.754 38.4994C106.614 38.4994 107.544 37.3174 107.714 35.5444C107.883 34.5313 107.883 33.2649 107.714 32.2518C107.46 30.4788 106.53 29.3812 104.923 29.3812C103.063 29.4656 102.049 30.7321 101.542 32.4206Z" fill="#FF4800"/>
<path d="M133.586 38.5823C133.248 38.5823 132.402 37.8225 132.402 37.4003V31.3215C132.402 29.4641 131.049 28.1977 129.358 28.1977C127.414 28.1977 126.399 29.2953 125.046 30.6461L124.624 28.3666H121.157V29.2108H121.834C122.172 29.2108 123.017 30.0551 123.017 30.3928V37.4003C123.017 37.738 122.172 38.5823 121.834 38.5823H121.157H120.481C120.143 38.5823 119.297 37.8225 119.297 37.4003V31.406C119.297 29.2108 117.522 28.1133 115.154 28.1133C112.956 28.1133 111.688 28.8731 110.758 29.8018L112.195 31.997H112.956C112.111 30.1395 112.787 28.9576 114.647 28.9576C116.592 28.9576 117.268 29.8018 117.183 31.406V32.7568L114.393 33.3478C112.872 33.6855 110.842 34.4454 110.842 36.6405C110.842 38.4135 112.111 39.5955 113.632 39.5955C115.239 39.5955 116.423 38.329 117.268 37.1471L117.522 39.3422H121.073H126.822V38.4979H126.23C125.892 38.4979 125.046 37.738 125.046 37.3159V31.7437C125.046 30.9838 127.076 29.4641 128.597 29.4641C129.781 29.4641 130.373 30.3084 130.373 31.3215V37.3159C130.373 37.6536 129.527 38.4979 129.189 38.4979H128.513V39.3422H134.093V38.4979H133.586V38.5823ZM117.268 36.2183C116.845 37.0626 115.662 38.1602 114.562 38.1602C113.463 38.1602 112.787 37.3159 112.787 36.3872C112.787 35.2896 113.21 34.5298 114.647 34.1921L117.268 33.5167V36.2183Z" fill="#FF4800"/>
<path d="M134.941 30.5638C134.772 30.2261 133.842 29.2974 133.503 29.2974H132.996V28.4531H138.83V29.2974H138.154C137.815 29.2974 137.139 30.0573 137.139 30.4794L139.675 36.3049L142.212 30.4794C142.212 30.0573 141.535 29.2974 141.282 29.2974H140.605V28.4531H145.002V29.2974H144.495C144.241 29.2974 143.48 30.1417 143.226 30.4794L139.506 38.9222L136.716 45.001L135.702 44.5788L138.661 38.5845L134.941 30.5638Z" fill="#FF4800"/>
</g>
<defs>
<clipPath id="clip0_2078_36130">
<rect width="145" height="45" fill="white"/>
</clipPath>
</defs>
</svg>
