<svg width="150" height="115" viewBox="0 0 150 115" fill="none" xmlns="http://www.w3.org/2000/svg">
<g clip-path="url(#clip0_2078_36280)">
<path d="M150.002 49.1291H95.4414V35.1641H150.002V49.1291Z" fill="#FF4800" fill-opacity="0.4"/>
<path d="M142.915 49.1272H95.4414V14.1992H142.915V49.1272Z" fill="#FF4800" fill-opacity="0.6"/>
<path d="M123.301 49.128H95.4414V0.242188H123.301V49.128Z" fill="#FF4800" fill-opacity="0.3"/>
<path d="M128.783 49.1262H95.4414V5.69531H128.783V49.1262Z" fill="#FF4800" fill-opacity="0.5"/>
<path d="M95.4336 5.70703V49.1252H123.298V5.70703H95.4336Z" fill="#FF4800" fill-opacity="0.5"/>
<path d="M67.5039 49.1289H95.4411V56.1122H67.5039V49.1289Z" fill="#FF4800"/>
<path d="M95.4336 14.1914V49.1227H128.798V14.1914H95.4336Z" fill="#FF4800" fill-opacity="0.3"/>
<path d="M95.4336 14.1914V49.1227H123.298V14.1914H95.4336Z" fill="#FF4800"/>
<path d="M112.864 49.1284H95.4414V28.1641H112.864V49.1284Z" fill="#FF4800"/>
<path d="M95.4336 35.1719V49.1225H142.931V35.1719H95.4336Z" fill="#DB4E18"/>
<path d="M95.4336 35.1719V49.1225H128.798V35.1719H95.4336Z" fill="#FF4800"/>
<path d="M95.4336 35.1719V49.1225H123.298V35.1719H95.4336Z" fill="#FF4800"/>
<path d="M95.4336 35.1719V49.1225H112.881V35.1719H95.4336Z" fill="#FF4800"/>
<path d="M101.516 75.4308C96.7625 76.2758 94.2273 79.8674 94.2273 86.0998C94.2273 92.4379 97.6076 96.6633 102.572 96.6633C105.002 96.6633 107.115 95.8182 111.551 93.5999C111.551 98.776 111.551 98.776 111.551 98.776C106.164 101.311 102.995 101.945 98.7695 101.945C94.016 101.945 90.6357 100.783 87.9949 97.9309C85.2484 95.1844 83.7695 91.5928 83.7695 87.4731C83.7695 78.4942 90.5301 72.2617 100.354 72.2617C106.798 72.2617 111.34 75.3251 111.34 79.6561C111.34 82.5083 109.227 84.5153 106.164 84.5153C104.579 84.5153 103.312 83.9872 101.516 83.0364" fill="#FF4800"/>
<path d="M77.7457 87.4731C82.0767 82.0857 83.6612 79.8674 83.6612 77.2265C83.6612 74.5857 81.5485 72.2617 78.5908 72.2617C76.9006 72.2617 75.3161 73.2124 74.5767 74.0575C74.5767 85.1491 74.5767 85.1491 74.5767 85.1491C67.4992 94.6562 67.4992 94.6562 67.4992 94.6562C67.4992 73.1068 67.4992 73.1068 67.4992 73.1068C60.7387 73.1068 60.7387 73.1068 60.7387 73.1068C49.5415 91.5928 49.5415 91.5928 49.5415 91.5928C49.5415 73.1068 49.5415 73.1068 49.5415 73.1068C45.7387 73.1068 45.7387 73.1068 45.7387 73.1068C35.4922 75.4308 35.4922 75.4308 35.4922 75.4308C35.4922 78.0716 35.4922 78.0716 35.4922 78.0716C41.0908 78.5998 41.0908 78.5998 41.0908 78.5998C41.0908 101.522 41.0908 101.522 41.0908 101.522C48.1682 101.522 48.1682 101.522 48.1682 101.522C58.9429 83.7759 58.9429 83.7759 58.9429 83.7759C58.9429 101.522 58.9429 101.522 58.9429 101.522C66.8654 101.522 66.8654 101.522 66.8654 101.522" fill="#FF4800"/>
<path d="M14.0493 97.9306C14.8944 97.9306 15.1056 97.9306 15.6338 97.9306C21.338 97.9306 24.507 94.4446 24.507 87.4728C24.507 81.6629 21.9718 78.4938 17.2183 78.4938C16.5845 78.4938 15.6338 78.5995 14.0493 78.9164V97.9306ZM14.0493 110.395C18.6972 111.452 18.6972 111.452 18.6972 111.452C18.6972 114.093 18.6972 114.093 18.6972 114.093C0.422534 114.093 0.422536 114.093 0.422536 114.093C0.422536 111.452 0.422536 111.452 0.422536 111.452C4.64789 110.395 4.64789 110.395 4.64789 110.395C4.64789 78.4938 4.64789 78.4938 4.64789 78.4938C-5.72205e-07 78.4938 0 78.4938 0 78.4938C0 75.853 0 75.853 0 75.853C11.0915 72.4727 11.0915 72.4727 11.0915 72.4727C14.0493 72.4727 14.0493 72.4727 14.0493 72.4727C14.0493 76.2755 14.0493 76.2755 14.0493 76.2755C19.2254 73.1065 21.0211 72.5783 23.7676 72.5783C29.8944 72.5783 34.5423 78.2826 34.5423 86.2051C34.5423 95.2897 28.3099 101.522 18.8028 101.522C17.7465 101.522 15.9507 101.417 14.0493 101.311" fill="#FF4800"/>
</g>
<defs>
<clipPath id="clip0_2078_36280">
<rect width="150" height="113.85" fill="white" transform="translate(0 0.242188)"/>
</clipPath>
</defs>
</svg>
