<svg width="48" height="48" viewBox="0 0 48 48" fill="none" xmlns="http://www.w3.org/2000/svg">
<circle cx="36" cy="4" r="3" stroke="#999999" stroke-width="2"/>
<path d="M31 14.2547C32.1338 13.4638 33.5128 13 35 13C38.866 13 42 16.134 42 20C42 23.6204 39.2515 26.5989 35.7272 26.9627" stroke="#999999" stroke-width="2"/>
<circle cx="19.5" cy="7.5" r="1.5" stroke="#999999" stroke-width="2"/>
<circle cx="43" cy="10" r="1" stroke="#999999" stroke-width="2"/>
<path d="M17.7214 35.7657L10.6665 37.3334L12.2343 30.2785C11.2338 28.4075 10.6665 26.2701 10.6665 24.0001C10.6665 16.6363 16.636 10.6667 23.9998 10.6667C31.3636 10.6667 37.3332 16.6363 37.3332 24.0001C37.3332 31.3638 31.3636 37.3334 23.9998 37.3334C21.7298 37.3334 19.5924 36.7662 17.7214 35.7657ZM18.1075 32.9481L18.9789 33.4141C20.5098 34.2327 22.2205 34.6667 23.9998 34.6667C29.8909 34.6667 34.6665 29.8911 34.6665 24.0001C34.6665 18.109 29.8909 13.3334 23.9998 13.3334C18.1088 13.3334 13.3332 18.109 13.3332 24.0001C13.3332 25.7794 13.7672 27.4901 14.5858 29.021L15.0518 29.8923L14.1787 33.8211L18.1075 32.9481Z" fill="black"/>
</svg>
