<svg width="48" height="48" viewBox="0 0 48 48" fill="none" xmlns="http://www.w3.org/2000/svg">
<path d="M19.9998 13.3334C21.4726 13.3334 22.6665 14.5273 22.6665 16.0001V25.1029C21.4742 24.1831 19.9545 23.6407 18.219 23.3515L17.7806 25.9819C19.6215 26.2887 20.7964 26.8705 21.5201 27.6545C22.2265 28.4197 22.6665 29.5561 22.6665 31.3334C22.6665 33.1743 21.1741 34.6667 19.3332 34.6667C17.4922 34.6667 15.9998 33.1743 15.9998 31.3334V30.8658C16.5733 31.0569 17.1683 31.2133 17.7806 31.3153L18.219 28.6849C17.2285 28.5198 16.2334 28.1526 15.2386 27.6799C14.1086 27.1431 13.3332 25.9987 13.3332 24.6667C13.3332 23.5538 13.61 22.6781 14.0782 22.0343C14.5391 21.4006 15.2557 20.8938 16.3232 20.6269L17.3332 20.3745V16.0001C17.3332 14.5273 18.5271 13.3334 19.9998 13.3334ZM23.9998 12.4723C23.0226 11.3651 21.5928 10.6667 19.9998 10.6667C17.0543 10.6667 14.6665 13.0546 14.6665 16.0001V18.3657C13.5318 18.822 12.6017 19.5305 11.9215 20.4659C11.0564 21.6554 10.6665 23.113 10.6665 24.6667C10.6665 26.7537 11.7274 28.5823 13.3332 29.6563V31.3334C13.3332 34.6471 16.0195 37.3334 19.3332 37.3334C21.218 37.3334 22.8998 36.4643 23.9998 35.105C25.0998 36.4643 26.7817 37.3334 28.6665 37.3334C31.9802 37.3334 34.6665 34.6471 34.6665 31.3334V29.6563C36.2724 28.5823 37.3332 26.7537 37.3332 24.6667C37.3332 23.113 36.9433 21.6554 36.0781 20.4659C35.398 19.5305 34.468 18.822 33.3332 18.3657V16.0001C33.3332 13.0546 30.9453 10.6667 27.9998 10.6667C26.4069 10.6667 24.977 11.3651 23.9998 12.4723ZM31.9998 30.8658V31.3334C31.9998 33.1743 30.5074 34.6667 28.6665 34.6667C26.8256 34.6667 25.3332 33.1743 25.3332 31.3334C25.3332 29.5561 25.7732 28.4197 26.4796 27.6545C27.2033 26.8705 28.3782 26.2887 30.219 25.9819L29.7806 23.3515C28.0452 23.6407 26.5254 24.1831 25.3332 25.1029V16.0001C25.3332 14.5273 26.527 13.3334 27.9998 13.3334C29.4726 13.3334 30.6665 14.5273 30.6665 16.0001V20.3745L31.6765 20.6269C32.744 20.8938 33.4606 21.4006 33.9216 22.0343C34.3897 22.6781 34.6665 23.5538 34.6665 24.6667C34.6665 25.9987 33.891 27.1431 32.761 27.6799C31.7662 28.1526 30.7712 28.5198 29.7806 28.6849L30.219 31.3153C30.8314 31.2133 31.4264 31.0569 31.9998 30.8658Z" fill="black"/>
<path d="M4 13L7 15" stroke="#999999" stroke-width="2"/>
<path d="M11 5L13 10" stroke="#999999" stroke-width="2"/>
<path d="M41 6L37 10" stroke="#999999" stroke-width="2"/>
<circle cx="42.5" cy="17.5" r="2.5" stroke="#999999" stroke-width="2"/>
<circle cx="30.5" cy="4.5" r="1.5" stroke="#999999" stroke-width="2"/>
</svg>
