<svg width="150" height="72" viewBox="0 0 150 72" fill="none" xmlns="http://www.w3.org/2000/svg">
<path fill-rule="evenodd" clipRule="evenodd" d="M132.693 36.6396C132.693 28.4131 128.719 21.9219 121.122 21.9219C113.494 21.9219 108.879 28.4131 108.879 36.5754C108.879 46.2479 114.328 51.1324 122.148 51.1324C125.962 51.1324 128.847 50.2648 131.026 49.0437V42.6167C128.847 43.7093 126.347 44.3841 123.174 44.3841C120.065 44.3841 117.308 43.2915 116.956 39.4996H132.629C132.629 39.0819 132.693 37.4109 132.693 36.6396ZM116.86 33.5868C116.86 29.9556 119.071 28.4452 121.09 28.4452C123.046 28.4452 125.129 29.9556 125.129 33.5868H116.86Z" fill="#FF4800"/>
<path fill-rule="evenodd" clipRule="evenodd" d="M96.5078 21.9219C93.3668 21.9219 91.3476 23.4001 90.2258 24.4284L89.8091 22.436H82.7578V59.9052L90.7706 58.2021L90.8027 49.1079C91.9565 49.9434 93.6552 51.1324 96.4758 51.1324C102.213 51.1324 107.437 46.505 107.437 36.3183C107.405 26.9992 102.117 21.9219 96.5078 21.9219ZM94.5847 44.0628C92.6937 44.0628 91.5719 43.3879 90.8027 42.5524L90.7706 30.6304C91.604 29.6985 92.7578 29.0558 94.5847 29.0558C97.5014 29.0558 99.5206 32.3336 99.5206 36.5432C99.5206 40.8493 97.5335 44.0628 94.5847 44.0628Z" fill="#FF4800"/>
<path fill-rule="evenodd" clipRule="evenodd" d="M71.7305 20.0243L79.7753 18.289V11.7656L71.7305 13.4688V20.0243Z" fill="#FF4800"/>
<path d="M79.7753 22.4648H71.7305V50.5828H79.7753V22.4648Z" fill="#FF4800"/>
<path fill-rule="evenodd" clipRule="evenodd" d="M63.1117 24.843L62.5989 22.465H55.6758V50.583H63.6886V31.527C65.5796 29.0526 68.7848 29.5025 69.7783 29.856V22.465C68.7527 22.0794 65.0027 21.3724 63.1117 24.843Z" fill="#FF4800"/>
<path fill-rule="evenodd" clipRule="evenodd" d="M47.083 15.4922L39.2625 17.1632L39.2305 42.9032C39.2305 47.6592 42.7882 51.1619 47.5318 51.1619C50.16 51.1619 52.083 50.6798 53.1407 50.1014V43.578C52.1151 43.9958 47.051 45.474 47.051 40.718V29.3102H53.1407V22.4654H47.051L47.083 15.4922Z" fill="#FF4800"/>
<path fill-rule="evenodd" clipRule="evenodd" d="M25.4176 30.6304C25.4176 29.3772 26.4432 28.8951 28.1419 28.8951C30.5778 28.8951 33.6547 29.6342 36.0906 30.9518V23.4001C33.4304 22.3396 30.8022 21.9219 28.1419 21.9219C21.6355 21.9219 17.3086 25.3282 17.3086 31.016C17.3086 39.8852 29.4881 38.4713 29.4881 42.2954C29.4881 43.7736 28.206 44.2556 26.4112 44.2556C23.7509 44.2556 20.3535 43.163 17.6612 41.6848V49.3329C20.6419 50.6183 23.6547 51.1646 26.4112 51.1646C33.0778 51.1646 37.6612 47.8547 37.6612 42.1025C37.6291 32.5264 25.4176 34.2295 25.4176 30.6304Z" fill="#FF4800"/>
</svg>
