<svg width="150" height="17" viewBox="0 0 150 17" fill="none" xmlns="http://www.w3.org/2000/svg">
<g clip-path="url(#clip0_2078_36301)">
<path d="M0 0.88761C0.193744 1.62222 0.580668 2.29155 1.12057 2.82605C1.66047 3.36055 2.33366 3.74073 3.07018 3.92708H7.86404L8.10965 4.02357V16.1201H11.1009V4.04112L11.3728 3.94463H16.1711C16.9051 3.75327 17.5757 3.3714 18.1148 2.83767C18.6539 2.30395 19.0425 1.63729 19.2412 0.905154V0.874452H0V0.88761ZM104.654 0.870066H101.671V16.1552H115.329C115.976 15.9047 116.552 15.4995 117.006 14.975C117.46 14.4504 117.779 13.8226 117.934 13.1464H104.645L104.654 0.870066ZM81.7018 3.87884C83.2895 3.44024 84.6228 2.2034 84.943 0.861294L68.2325 0.88761V9.90077H81.9035V13.0718H71.1754C70.3576 13.2838 69.5941 13.6672 68.9355 14.1964C68.2769 14.7257 67.7383 15.3889 67.3553 16.142H84.8509V6.90077H71.1842V3.87884H81.7018ZM132.654 16.1464H135.618V9.99726H146.399V16.1464H149.36V6.92708L132.654 6.90954V16.1464ZM37.4342 3.91393H48.8377C49.5848 3.73421 50.2681 3.35289 50.8134 2.81152C51.3586 2.27014 51.7448 1.58949 51.9298 0.84375L34.3421 0.84375C34.5289 1.58863 34.9157 2.26832 35.4606 2.80941C36.0056 3.3505 36.688 3.73242 37.4342 3.91393ZM37.4342 9.9534H48.8377C49.5843 9.77279 50.2672 9.39116 50.8123 8.84993C51.3574 8.3087 51.7439 7.62854 51.9298 6.88322H34.3421C34.5298 7.62768 34.9169 8.30689 35.4617 8.84784C36.0065 9.38879 36.6884 9.77101 37.4342 9.9534ZM37.4342 16.1552H48.8377C49.5843 15.9745 50.2672 15.5929 50.8123 15.0517C51.3574 14.5105 51.7439 13.8303 51.9298 13.085H34.3421C34.5294 13.8296 34.9163 14.5091 35.4612 15.0501C36.006 15.5911 36.6882 15.9732 37.4342 16.1552ZM135.289 3.9227H146.693C147.441 3.74324 148.125 3.36208 148.671 2.82073C149.217 2.27938 149.604 1.5986 149.789 0.852522H132.197C132.383 1.59783 132.77 2.278 133.315 2.81923C133.86 3.36046 134.543 3.74208 135.289 3.9227Z" fill="#FF4800"/>
</g>
<defs>
<clipPath id="clip0_2078_36301">
<rect width="150" height="15.3509" fill="white" transform="translate(0 0.84375)"/>
</clipPath>
</defs>
</svg>
